<svg xmlns="http://www.w3.org/2000/svg" id="Layer_1" data-name="Layer 1" viewBox="51.36 226.47 722.47 134.29">
  <defs>
    <style>
      .cls-1, .cls-2 {
        stroke-width: 0px;
      }

      .cls-2 {
        fill: #73e05f;
      }
    </style>
  </defs>
  <g>
    <path class="cls-1" d="M218.03,327.73c-7.97,0-15.26-1.72-21.89-5.16-6.62-3.44-11.89-8.55-15.79-15.35-3.9-6.79-5.85-14.97-5.85-24.53s1.97-17.73,5.91-24.53c3.94-6.79,9.22-11.91,15.85-15.35,6.62-3.44,13.88-5.16,21.76-5.16,6.87,0,13.14,1.28,18.8,3.84,5.66,2.56,10.29,6.12,13.9,10.69,3.6,4.57,5.79,9.83,6.54,15.78h-16.23c-.42-3.27-1.72-6.18-3.9-8.74-2.18-2.56-4.95-4.55-8.3-5.97-3.35-1.42-7-2.14-10.94-2.14-5.37,0-10.15,1.22-14.34,3.65-4.19,2.43-7.46,6.02-9.81,10.75-2.35,4.74-3.52,10.46-3.52,17.17s1.17,12.43,3.52,17.17c2.35,4.74,5.62,8.32,9.81,10.75,4.19,2.43,8.97,3.65,14.34,3.65,4.11,0,7.86-.71,11.26-2.14,3.4-1.42,6.16-3.42,8.3-5.98,2.14-2.56,3.46-5.47,3.96-8.74h15.6c-.59,5.95-2.64,11.22-6.16,15.78-3.52,4.57-8.13,8.13-13.84,10.69-5.7,2.56-12.03,3.84-18.99,3.84Z"/>
    <path class="cls-1" d="M265.33,236.41h14.46v90.31h-14.46v-90.31Z"/>
    <path class="cls-1" d="M320.29,327.73c-6.29,0-11.95-1.42-16.98-4.28-5.03-2.85-8.95-6.75-11.76-11.7-2.81-4.95-4.21-10.52-4.21-16.73s1.4-11.78,4.21-16.73c2.81-4.95,6.73-8.85,11.76-11.7,5.03-2.85,10.69-4.28,16.98-4.28s11.95,1.43,16.98,4.28c5.03,2.85,8.95,6.75,11.76,11.7,2.81,4.95,4.21,10.52,4.21,16.73s-1.41,11.78-4.21,16.73c-2.81,4.95-6.73,8.85-11.76,11.7-5.03,2.85-10.69,4.28-16.98,4.28ZM320.29,315.27c3.6,0,6.81-.86,9.62-2.58,2.81-1.72,4.97-4.11,6.48-7.17,1.51-3.06,2.26-6.56,2.26-10.5s-.75-7.44-2.26-10.5c-1.51-3.06-3.67-5.45-6.48-7.17-2.81-1.72-6.02-2.58-9.62-2.58s-6.81.86-9.62,2.58c-2.81,1.72-4.97,4.11-6.48,7.17-1.51,3.06-2.26,6.56-2.26,10.5s.75,7.44,2.26,10.5c1.51,3.06,3.67,5.45,6.48,7.17,2.81,1.72,6.02,2.58,9.62,2.58Z"/>
    <path class="cls-1" d="M418.4,326.72h-14.46v-10.19c-1.68,3.61-4.28,6.37-7.8,8.3-3.52,1.93-7.59,2.89-12.2,2.89s-8.72-1.05-12.33-3.14c-3.61-2.1-6.37-5.05-8.3-8.87-1.93-3.81-2.89-8.2-2.89-13.14v-39.24h14.34v36.22c0,4.53,1.28,8.22,3.84,11.07,2.56,2.85,5.85,4.28,9.87,4.28,3.02,0,5.7-.73,8.05-2.2,2.35-1.47,4.17-3.5,5.47-6.1,1.3-2.6,1.95-5.49,1.95-8.68v-34.59h14.46v63.39Z"/>
    <path class="cls-1" d="M456.13,327.73c-6.29,0-11.7-1.38-16.23-4.15-4.53-2.77-7.99-6.6-10.38-11.51-2.39-4.91-3.58-10.58-3.58-17.04s1.19-12.14,3.58-17.04c2.39-4.91,5.83-8.74,10.31-11.51,4.48-2.77,9.87-4.15,16.16-4.15,4.11,0,7.84.84,11.19,2.52,3.35,1.68,5.95,3.9,7.8,6.67v-35.09h14.46v90.31h-14.46v-8.43c-1.76,2.94-4.36,5.24-7.8,6.92-3.44,1.68-7.13,2.52-11.07,2.52ZM458.14,315.27c5.37,0,9.68-1.84,12.96-5.53,3.27-3.69,4.91-8.59,4.91-14.72s-1.64-11.03-4.91-14.72c-3.27-3.69-7.59-5.53-12.96-5.53s-9.68,1.85-12.95,5.53c-3.27,3.69-4.91,8.6-4.91,14.72s1.64,11.03,4.91,14.72c3.27,3.69,7.59,5.53,12.95,5.53Z"/>
    <path class="cls-1" d="M541.41,327.73c-7.97,0-15.26-1.72-21.89-5.16-6.62-3.44-11.89-8.55-15.79-15.35-3.9-6.79-5.85-14.97-5.85-24.53s1.97-17.73,5.91-24.53c3.94-6.79,9.22-11.91,15.85-15.35,6.62-3.44,13.88-5.16,21.76-5.16,6.87,0,13.14,1.28,18.8,3.84,5.66,2.56,10.29,6.12,13.9,10.69,3.6,4.57,5.79,9.83,6.54,15.78h-16.22c-.42-3.27-1.72-6.18-3.9-8.74-2.18-2.56-4.95-4.55-8.3-5.97-3.35-1.42-7-2.14-10.94-2.14-5.37,0-10.15,1.22-14.34,3.65-4.19,2.43-7.46,6.02-9.81,10.75-2.35,4.74-3.52,10.46-3.52,17.17s1.17,12.43,3.52,17.17c2.35,4.74,5.62,8.32,9.81,10.75,4.19,2.43,8.97,3.65,14.34,3.65,4.11,0,7.86-.71,11.26-2.14,3.4-1.42,6.16-3.42,8.3-5.98,2.14-2.56,3.46-5.47,3.96-8.74h15.6c-.59,5.95-2.64,11.22-6.16,15.78-3.52,4.57-8.13,8.13-13.84,10.69-5.7,2.56-12.03,3.84-18.99,3.84Z"/>
    <path class="cls-1" d="M588.19,236.41h14.46v90.31h-14.46v-90.31Z"/>
    <path class="cls-1" d="M657.5,305.71c-.84,3.19-2.58,5.64-5.22,7.36-2.65,1.72-6.06,2.58-10.25,2.58-3.69,0-6.91-.87-9.69-2.64-2.77-1.76-4.9-4.23-6.41-7.42-1.09-2.31-1.79-4.87-2.1-7.67h47.25c.17-1.59.25-3.32.25-5.16,0-5.37-1.14-10.36-3.4-14.97-2.26-4.61-5.7-8.34-10.31-11.19-4.61-2.85-10.24-4.28-16.86-4.28s-12.02,1.49-16.67,4.47c-4.66,2.98-8.18,6.91-10.57,11.82-2.39,4.91-3.58,10.29-3.58,16.16s1.28,11.09,3.84,16.16c2.55,5.07,6.27,9.14,11.13,12.2,4.86,3.06,10.56,4.59,17.1,4.59,7.8,0,14.4-2.01,19.81-6.04,5.4-4.02,8.7-9.35,9.87-15.97h-14.21ZM628.19,278.73c2.94-3.56,7.13-5.34,12.58-5.34,4.69,0,8.49,1.34,11.38,4.02,2.89,2.68,4.47,6.21,4.71,10.56h-32.6c.69-3.83,2-6.91,3.92-9.24Z"/>
    <path class="cls-1" d="M669.95,263.33h14.72l15.35,45.15,15.22-45.15h14.84l-23.27,63.39h-13.71l-23.14-63.39Z"/>
    <path class="cls-1" d="M764.16,275.53c-4.95,0-8.55,1.93-10.82,5.79-2.26,3.86-3.4,9.14-3.4,15.85v29.56h-14.46v-63.39h14.46v11.45c1.51-4.03,3.56-6.94,6.16-8.74,2.6-1.8,6.04-2.7,10.31-2.7h7.42v12.2h-9.68Z"/>
  </g>
  <g>
    <polygon class="cls-2" points="82.43 321.74 114.93 344.65 83.86 360.76 51.36 337.85 51.36 298.09 82.43 281.97 82.43 321.74"/>
    <polygon class="cls-2" points="114.84 265.49 82.34 242.58 113.41 226.47 145.91 249.38 145.91 289.14 114.84 305.25 114.84 265.49"/>
  </g>
</svg>